<svg id="svg" version="1.1" xmlns="http://www.w3.org/2000/svg" xmlns:xlink="http://www.w3.org/1999/xlink" width="400" height="400" viewBox="0, 0, 400,400"><g id="svgg"><path id="path0" d="M196.692 44.390 C 196.655 44.427,194.973 44.523,192.954 44.605 C 190.935 44.686,189.135 44.800,188.954 44.858 C 188.773 44.916,187.781 45.029,186.750 45.110 C 185.719 45.190,184.594 45.304,184.250 45.362 C 183.906 45.420,183.231 45.527,182.750 45.598 C 179.743 46.045,176.876 46.547,176.696 46.658 C 176.497 46.781,176.264 46.825,174.311 47.109 C 173.864 47.173,173.313 47.330,173.088 47.456 C 172.863 47.582,172.470 47.630,172.214 47.563 C 171.959 47.496,171.750 47.557,171.750 47.697 C 171.750 47.838,171.525 47.894,171.250 47.822 C 170.975 47.751,170.750 47.807,170.750 47.947 C 170.750 48.088,170.525 48.144,170.250 48.072 C 169.958 47.996,169.750 48.065,169.750 48.238 C 169.750 48.420,169.558 48.473,169.250 48.375 C 168.975 48.288,168.750 48.312,168.750 48.430 C 168.750 48.547,168.389 48.671,167.947 48.705 C 167.506 48.738,167.084 48.852,167.010 48.956 C 166.936 49.061,166.544 49.170,166.139 49.199 C 165.734 49.229,165.340 49.336,165.264 49.439 C 165.123 49.628,164.872 49.707,163.750 49.915 C 162.677 50.114,159.456 51.253,158.937 51.616 C 158.665 51.806,158.287 51.902,158.096 51.829 C 157.906 51.756,157.750 51.840,157.750 52.015 C 157.750 52.190,157.676 52.259,157.586 52.169 C 157.495 52.078,157.275 52.125,157.097 52.273 C 156.919 52.421,156.463 52.575,156.084 52.617 C 155.705 52.659,155.354 52.812,155.306 52.957 C 155.257 53.103,155.071 53.166,154.891 53.097 C 154.711 53.028,154.395 53.141,154.187 53.349 C 153.979 53.556,153.734 53.650,153.641 53.558 C 153.549 53.465,153.383 53.534,153.274 53.711 C 153.164 53.888,152.917 54.057,152.725 54.086 C 152.532 54.115,152.234 54.227,152.063 54.334 C 151.891 54.442,151.750 54.459,151.750 54.372 C 151.750 54.285,151.572 54.392,151.355 54.609 C 151.138 54.827,150.856 54.941,150.730 54.863 C 150.603 54.784,150.500 54.846,150.500 55.000 C 150.500 55.154,150.395 55.215,150.267 55.136 C 150.139 55.057,149.963 55.108,149.875 55.250 C 149.787 55.392,149.611 55.443,149.483 55.364 C 149.355 55.285,149.250 55.340,149.250 55.485 C 149.250 55.631,149.166 55.738,149.063 55.723 C 148.673 55.667,147.750 56.068,147.750 56.294 C 147.750 56.423,147.637 56.460,147.500 56.375 C 147.363 56.290,147.250 56.346,147.250 56.500 C 147.250 56.654,147.137 56.710,147.000 56.625 C 146.863 56.540,146.750 56.596,146.750 56.750 C 146.750 56.904,146.637 56.960,146.500 56.875 C 146.363 56.790,146.250 56.846,146.250 57.000 C 146.250 57.154,146.137 57.210,146.000 57.125 C 145.863 57.040,145.750 57.096,145.750 57.250 C 145.750 57.404,145.637 57.460,145.500 57.375 C 145.363 57.290,145.250 57.346,145.250 57.500 C 145.250 57.654,145.137 57.710,145.000 57.625 C 144.863 57.540,144.750 57.596,144.750 57.750 C 144.750 57.904,144.637 57.960,144.500 57.875 C 144.363 57.790,144.250 57.846,144.250 58.000 C 144.250 58.154,144.137 58.210,144.000 58.125 C 143.863 58.040,143.750 58.096,143.750 58.250 C 143.750 58.404,143.650 58.468,143.528 58.393 C 143.406 58.317,143.169 58.422,143.000 58.625 C 142.831 58.828,142.594 58.933,142.472 58.857 C 142.350 58.782,142.250 58.846,142.250 59.000 C 142.250 59.154,142.155 59.221,142.038 59.148 C 141.921 59.076,141.584 59.243,141.288 59.518 C 140.992 59.794,140.750 59.941,140.750 59.846 C 140.750 59.751,140.544 59.859,140.292 60.087 C 140.040 60.315,139.762 60.428,139.673 60.340 C 139.584 60.251,139.441 60.363,139.355 60.588 C 139.268 60.813,139.097 60.935,138.974 60.859 C 138.851 60.783,138.750 60.840,138.750 60.985 C 138.750 61.131,138.666 61.223,138.563 61.189 C 138.333 61.115,136.446 62.247,136.191 62.612 C 136.090 62.757,136.006 62.769,136.004 62.640 C 136.002 62.511,135.771 62.652,135.490 62.953 C 135.210 63.254,134.816 63.500,134.615 63.500 C 134.414 63.500,134.250 63.619,134.250 63.765 C 134.250 63.910,134.137 63.959,133.998 63.874 C 133.860 63.788,133.679 63.894,133.597 64.108 C 133.515 64.322,133.346 64.434,133.222 64.358 C 133.098 64.281,132.929 64.394,132.847 64.608 C 132.765 64.822,132.596 64.934,132.472 64.858 C 132.348 64.781,132.179 64.894,132.097 65.108 C 132.015 65.322,131.846 65.434,131.722 65.358 C 131.598 65.281,131.429 65.394,131.347 65.608 C 131.265 65.822,131.103 65.938,130.986 65.867 C 130.870 65.795,130.653 65.964,130.504 66.243 C 130.355 66.522,130.076 66.750,129.884 66.750 C 129.692 66.750,129.117 67.145,128.604 67.628 C 128.092 68.111,127.618 68.451,127.549 68.383 C 127.481 68.315,127.217 68.499,126.963 68.793 C 126.708 69.086,126.500 69.236,126.500 69.124 C 126.500 69.013,126.243 69.221,125.930 69.586 C 125.616 69.951,125.238 70.250,125.090 70.250 C 124.941 70.250,124.410 70.636,123.910 71.108 C 123.409 71.580,123.000 71.903,123.000 71.824 C 123.000 71.746,122.767 71.979,122.482 72.341 C 122.197 72.704,121.861 73.000,121.736 73.000 C 121.611 73.000,121.085 73.400,120.567 73.889 C 120.049 74.378,119.006 75.351,118.250 76.050 C 116.030 78.104,111.985 82.140,110.500 83.782 C 109.744 84.618,108.759 85.688,108.313 86.160 C 107.866 86.631,107.500 87.100,107.500 87.203 C 107.500 87.305,107.303 87.562,107.063 87.773 C 106.822 87.984,106.344 88.535,106.000 88.998 C 104.984 90.365,104.167 91.346,103.654 91.813 C 103.390 92.053,103.252 92.250,103.348 92.250 C 103.444 92.250,103.264 92.526,102.949 92.863 C 102.034 93.840,101.719 94.250,101.883 94.250 C 101.967 94.250,101.887 94.416,101.705 94.619 C 100.942 95.471,97.088 101.123,96.672 102.000 C 96.574 102.206,96.272 102.713,96.000 103.125 C 95.728 103.537,95.431 104.044,95.340 104.250 C 95.249 104.456,95.036 104.794,94.867 105.000 C 94.699 105.206,94.083 106.275,93.499 107.375 C 92.915 108.475,92.325 109.516,92.188 109.688 C 92.051 109.859,92.037 110.002,92.157 110.004 C 92.277 110.006,92.249 110.090,92.094 110.191 C 91.690 110.456,89.994 113.911,90.179 114.095 C 90.264 114.180,90.202 114.250,90.042 114.250 C 89.881 114.250,89.750 114.374,89.750 114.526 C 89.750 114.678,89.488 115.325,89.167 115.964 C 88.846 116.602,88.567 117.211,88.548 117.315 C 88.528 117.420,88.215 118.151,87.853 118.940 C 86.879 121.059,85.207 125.300,85.119 125.875 C 85.076 126.150,85.018 126.403,84.990 126.438 C 84.961 126.472,84.922 126.584,84.902 126.688 C 84.883 126.791,84.800 126.987,84.717 127.125 C 84.561 127.383,83.751 129.790,83.640 130.323 C 83.605 130.489,83.451 130.930,83.298 131.303 C 83.145 131.676,82.976 132.238,82.923 132.553 C 82.870 132.868,82.759 133.294,82.675 133.500 C 82.592 133.706,82.490 134.100,82.449 134.375 C 82.408 134.650,82.315 134.931,82.243 135.000 C 82.096 135.138,80.913 139.834,80.825 140.625 C 80.795 140.900,80.594 141.744,80.378 142.500 C 80.163 143.256,79.933 144.381,79.866 145.000 C 79.799 145.619,79.580 147.018,79.377 148.109 C 79.175 149.200,79.057 150.140,79.114 150.197 C 79.171 150.255,79.112 150.581,78.982 150.922 C 78.852 151.264,78.681 152.293,78.602 153.209 C 78.523 154.125,78.406 155.381,78.343 156.000 C 77.995 159.430,77.920 161.570,77.912 168.375 C 77.905 175.313,78.020 178.674,78.357 181.329 C 78.430 181.904,78.553 182.938,78.630 183.625 C 78.926 186.254,80.034 192.935,80.392 194.250 C 80.599 195.006,80.794 195.850,80.827 196.125 C 80.935 197.033,82.078 201.623,82.228 201.750 C 82.309 201.819,82.412 202.211,82.456 202.622 C 82.501 203.033,82.651 203.439,82.790 203.525 C 82.929 203.611,83.014 203.725,82.979 203.778 C 82.822 204.019,83.282 206.000,83.495 206.000 C 83.627 206.000,83.670 206.169,83.590 206.375 C 83.511 206.581,83.578 206.750,83.738 206.750 C 83.898 206.750,83.965 206.855,83.886 206.983 C 83.807 207.111,83.858 207.287,84.000 207.375 C 84.142 207.463,84.198 207.632,84.125 207.750 C 84.052 207.868,84.108 208.037,84.250 208.125 C 84.392 208.213,84.448 208.382,84.375 208.500 C 84.302 208.618,84.351 208.783,84.485 208.866 C 84.619 208.948,84.665 209.181,84.587 209.383 C 84.510 209.585,84.568 209.750,84.715 209.750 C 84.863 209.750,84.920 209.919,84.840 210.125 C 84.761 210.331,84.828 210.500,84.988 210.500 C 85.148 210.500,85.212 210.609,85.130 210.743 C 85.047 210.876,85.175 211.354,85.414 211.805 C 85.653 212.256,85.861 212.738,85.875 212.875 C 85.938 213.468,86.318 214.500,86.474 214.500 C 86.567 214.500,86.662 214.743,86.684 215.040 C 86.707 215.337,86.853 215.659,87.009 215.755 C 87.165 215.852,87.283 216.003,87.271 216.090 C 87.195 216.660,87.298 217.013,87.643 217.357 C 87.859 217.573,87.977 217.750,87.906 217.750 C 87.834 217.750,87.894 218.088,88.037 218.500 C 88.181 218.912,88.407 219.250,88.539 219.250 C 88.671 219.250,88.710 219.363,88.625 219.500 C 88.540 219.637,88.596 219.750,88.750 219.750 C 88.904 219.750,88.965 219.855,88.886 219.983 C 88.710 220.267,89.506 222.000,89.811 222.000 C 89.931 222.000,89.960 222.113,89.875 222.250 C 89.790 222.388,89.846 222.500,90.000 222.500 C 90.154 222.500,90.210 222.612,90.125 222.750 C 90.040 222.887,90.096 223.000,90.250 223.000 C 90.404 223.000,90.460 223.112,90.375 223.250 C 90.290 223.387,90.346 223.500,90.500 223.500 C 90.654 223.500,90.710 223.612,90.625 223.750 C 90.540 223.887,90.596 224.000,90.750 224.000 C 90.904 224.000,90.960 224.113,90.875 224.250 C 90.790 224.388,90.846 224.500,91.000 224.500 C 91.154 224.500,91.210 224.613,91.125 224.750 C 91.040 224.888,91.096 225.000,91.250 225.000 C 91.404 225.000,91.460 225.113,91.375 225.250 C 91.290 225.387,91.346 225.500,91.500 225.500 C 91.654 225.500,91.710 225.612,91.625 225.750 C 91.540 225.887,91.596 226.000,91.750 226.000 C 91.904 226.000,91.960 226.112,91.875 226.250 C 91.790 226.387,91.846 226.500,92.000 226.500 C 92.154 226.500,92.210 226.613,92.125 226.750 C 92.040 226.888,92.072 227.000,92.196 227.000 C 92.320 227.000,92.557 227.456,92.724 228.013 C 92.891 228.570,93.190 229.089,93.388 229.164 C 93.585 229.240,93.685 229.403,93.609 229.526 C 93.533 229.649,93.590 229.750,93.735 229.750 C 93.881 229.750,94.000 229.954,94.000 230.203 C 94.000 230.452,94.225 230.897,94.500 231.192 C 94.775 231.488,95.000 231.906,95.000 232.122 C 95.000 232.339,95.169 232.580,95.375 232.660 C 95.581 232.739,95.750 233.011,95.750 233.264 C 95.750 233.518,95.891 233.815,96.062 233.925 C 96.234 234.035,96.570 234.547,96.808 235.063 C 97.047 235.578,97.356 236.000,97.496 236.000 C 97.636 236.000,97.750 236.169,97.750 236.375 C 97.750 236.581,97.862 236.750,98.000 236.750 C 98.138 236.750,98.250 236.919,98.250 237.125 C 98.250 237.331,98.362 237.500,98.500 237.500 C 98.638 237.500,98.750 237.669,98.750 237.875 C 98.750 238.081,98.862 238.250,99.000 238.250 C 99.138 238.250,99.250 238.419,99.250 238.625 C 99.250 238.831,99.350 239.000,99.473 239.000 C 99.595 239.000,99.761 239.262,99.842 239.581 C 99.922 239.901,100.328 240.519,100.744 240.954 C 101.160 241.389,101.500 241.842,101.500 241.959 C 101.500 242.077,101.697 242.405,101.938 242.688 C 102.178 242.972,102.544 243.453,102.750 243.759 C 102.956 244.065,103.491 244.710,103.938 245.192 C 104.384 245.675,104.751 246.139,104.751 246.222 C 104.752 246.306,105.140 246.797,105.613 247.313 C 106.087 247.828,106.416 248.250,106.344 248.250 C 106.273 248.250,106.363 248.401,106.545 248.586 C 106.726 248.771,107.325 249.460,107.875 250.117 C 108.425 250.775,109.288 251.749,109.793 252.281 C 110.298 252.814,110.660 253.250,110.597 253.250 C 110.535 253.250,110.877 253.644,111.358 254.125 C 111.840 254.606,112.181 255.000,112.117 255.000 C 112.053 255.000,112.197 255.202,112.437 255.449 C 112.678 255.696,113.251 256.366,113.711 256.937 C 114.170 257.509,114.789 258.244,115.086 258.570 C 115.382 258.896,116.075 259.702,116.625 260.362 C 117.175 261.023,118.038 261.999,118.543 262.531 C 119.048 263.064,119.410 263.500,119.347 263.500 C 119.285 263.500,119.627 263.894,120.108 264.375 C 120.590 264.856,120.931 265.250,120.867 265.250 C 120.803 265.250,120.947 265.453,121.187 265.701 C 121.428 265.950,122.019 266.631,122.500 267.216 C 122.981 267.800,123.600 268.533,123.875 268.845 C 124.150 269.157,124.825 269.952,125.375 270.612 C 125.925 271.273,126.788 272.249,127.293 272.781 C 127.798 273.314,128.160 273.750,128.097 273.750 C 128.035 273.750,128.377 274.144,128.858 274.625 C 129.340 275.106,129.677 275.500,129.608 275.500 C 129.540 275.500,129.877 275.894,130.358 276.375 C 130.840 276.856,131.181 277.250,131.117 277.250 C 131.053 277.250,131.197 277.455,131.438 277.706 C 131.678 277.957,132.269 278.644,132.750 279.233 C 133.231 279.821,133.850 280.553,134.125 280.858 C 134.400 281.163,135.075 281.952,135.625 282.612 C 136.175 283.273,137.038 284.249,137.543 284.781 C 138.048 285.314,138.410 285.750,138.347 285.750 C 138.285 285.750,138.627 286.144,139.108 286.625 C 139.590 287.106,139.931 287.500,139.867 287.500 C 139.803 287.500,139.947 287.702,140.188 287.949 C 140.428 288.196,141.001 288.866,141.461 289.437 C 141.920 290.009,142.539 290.744,142.836 291.070 C 143.132 291.396,143.825 292.202,144.375 292.862 C 144.925 293.523,145.788 294.499,146.293 295.031 C 146.798 295.564,147.160 296.000,147.097 296.000 C 147.035 296.000,147.377 296.394,147.858 296.875 C 148.340 297.356,148.681 297.750,148.617 297.750 C 148.553 297.750,148.697 297.953,148.938 298.201 C 149.178 298.450,149.769 299.131,150.250 299.716 C 150.731 300.300,151.350 301.033,151.625 301.345 C 151.900 301.657,152.575 302.452,153.125 303.112 C 153.675 303.773,154.538 304.749,155.043 305.281 C 155.548 305.814,155.910 306.250,155.847 306.250 C 155.785 306.250,156.127 306.644,156.608 307.125 C 157.090 307.606,157.427 308.000,157.358 308.000 C 157.290 308.000,157.627 308.394,158.108 308.875 C 158.590 309.356,158.931 309.750,158.867 309.750 C 158.802 309.750,158.947 309.955,159.188 310.206 C 159.428 310.457,160.019 311.144,160.500 311.733 C 160.981 312.321,161.600 313.053,161.875 313.358 C 162.150 313.663,162.825 314.452,163.375 315.112 C 163.925 315.773,164.788 316.749,165.293 317.281 C 165.798 317.814,166.160 318.250,166.097 318.250 C 166.035 318.250,166.377 318.644,166.858 319.125 C 167.340 319.606,167.681 320.000,167.617 320.000 C 167.552 320.000,167.697 320.202,167.938 320.449 C 168.178 320.696,168.751 321.366,169.211 321.937 C 169.670 322.509,170.289 323.244,170.586 323.570 C 170.882 323.896,171.575 324.702,172.125 325.362 C 172.675 326.023,173.538 326.999,174.043 327.531 C 174.548 328.064,174.910 328.500,174.847 328.500 C 174.785 328.500,175.127 328.894,175.608 329.375 C 176.090 329.856,176.431 330.250,176.367 330.250 C 176.302 330.250,176.447 330.453,176.688 330.701 C 176.928 330.950,177.519 331.631,178.000 332.216 C 178.481 332.800,179.100 333.533,179.375 333.845 C 179.650 334.157,180.325 334.952,180.875 335.612 C 181.425 336.273,182.288 337.249,182.793 337.781 C 183.298 338.314,183.660 338.750,183.597 338.750 C 183.535 338.750,183.877 339.144,184.358 339.625 C 184.840 340.106,185.177 340.500,185.108 340.500 C 185.040 340.500,185.377 340.894,185.858 341.375 C 186.340 341.856,186.681 342.250,186.617 342.250 C 186.552 342.250,186.697 342.458,186.938 342.713 C 187.178 342.968,187.692 343.558,188.079 344.025 C 190.178 346.559,193.902 350.448,195.836 352.125 C 202.554 357.952,209.641 356.576,217.676 347.884 C 219.760 345.630,221.532 337.302,220.034 336.803 C 219.893 336.756,219.840 336.556,219.916 336.359 C 219.992 336.161,219.932 336.000,219.785 336.000 C 219.637 336.000,219.575 335.846,219.647 335.657 C 219.720 335.469,219.623 335.158,219.432 334.967 C 219.241 334.776,219.009 334.320,218.917 333.953 C 218.825 333.585,218.586 333.122,218.387 332.922 C 218.187 332.723,218.093 332.490,218.179 332.405 C 218.264 332.320,218.195 332.250,218.027 332.250 C 217.858 332.250,217.791 332.137,217.876 331.998 C 217.962 331.860,217.856 331.679,217.641 331.596 C 217.426 331.514,217.250 331.290,217.250 331.098 C 217.250 330.907,217.137 330.750,217.000 330.750 C 216.863 330.750,216.750 330.581,216.750 330.375 C 216.750 330.169,216.637 330.000,216.500 330.000 C 216.363 330.000,216.250 329.879,216.250 329.732 C 216.250 329.585,216.109 329.313,215.938 329.127 C 215.766 328.942,215.400 328.495,215.125 328.135 C 214.850 327.775,214.407 327.260,214.140 326.990 C 213.874 326.721,213.753 326.500,213.873 326.500 C 213.992 326.500,213.712 326.162,213.250 325.750 C 212.788 325.337,212.503 325.000,212.616 325.000 C 212.730 325.000,212.525 324.724,212.162 324.387 C 211.798 324.050,211.500 323.708,211.500 323.629 C 211.500 323.549,211.162 323.153,210.750 322.750 C 210.338 322.347,210.000 321.953,210.000 321.875 C 210.000 321.797,209.662 321.403,209.250 321.000 C 208.838 320.597,208.500 320.203,208.500 320.126 C 208.500 320.048,208.102 319.636,207.617 319.209 C 207.131 318.782,206.785 318.382,206.848 318.318 C 206.912 318.255,206.574 317.861,206.098 317.443 C 205.623 317.025,205.289 316.627,205.358 316.559 C 205.427 316.490,205.206 316.215,204.867 315.949 C 204.527 315.682,204.250 315.356,204.250 315.223 C 204.250 315.091,203.913 314.653,203.500 314.250 C 203.088 313.847,202.750 313.453,202.750 313.375 C 202.750 313.297,202.413 312.903,202.000 312.500 C 201.588 312.097,201.250 311.699,201.250 311.617 C 201.250 311.534,200.841 311.080,200.340 310.608 C 199.840 310.136,199.506 309.750,199.599 309.750 C 199.691 309.750,199.366 309.398,198.875 308.967 C 198.385 308.536,198.030 308.137,198.086 308.081 C 198.143 308.024,197.893 307.655,197.532 307.262 C 195.830 305.408,195.500 305.021,195.500 304.883 C 195.500 304.800,195.163 304.403,194.750 304.000 C 194.338 303.597,194.000 303.203,194.000 303.125 C 194.000 303.047,193.663 302.653,193.250 302.250 C 192.838 301.847,192.500 301.453,192.500 301.376 C 192.500 301.298,192.102 300.886,191.617 300.459 C 191.131 300.032,190.785 299.632,190.848 299.568 C 190.912 299.505,190.574 299.111,190.098 298.693 C 189.623 298.275,189.280 297.887,189.336 297.831 C 189.393 297.774,189.143 297.402,188.782 297.004 C 187.312 295.387,186.750 294.723,186.750 294.606 C 186.750 294.539,186.412 294.153,186.000 293.750 C 185.587 293.347,185.250 292.953,185.250 292.875 C 185.250 292.797,184.912 292.403,184.500 292.000 C 184.088 291.597,183.750 291.203,183.750 291.126 C 183.750 291.048,183.352 290.636,182.867 290.209 C 182.381 289.782,182.035 289.382,182.098 289.318 C 182.162 289.255,181.824 288.861,181.348 288.443 C 180.873 288.025,180.539 287.627,180.608 287.559 C 180.677 287.490,180.456 287.215,180.117 286.949 C 179.777 286.682,179.500 286.356,179.500 286.223 C 179.500 286.091,179.162 285.653,178.750 285.250 C 178.337 284.847,178.000 284.453,178.000 284.375 C 178.000 284.297,177.662 283.903,177.250 283.500 C 176.838 283.097,176.500 282.699,176.500 282.617 C 176.500 282.534,176.091 282.080,175.590 281.608 C 175.090 281.136,174.756 280.750,174.849 280.750 C 174.941 280.750,174.616 280.398,174.125 279.967 C 173.635 279.536,173.287 279.130,173.353 279.064 C 173.418 278.998,173.141 278.666,172.736 278.325 C 172.331 277.984,172.000 277.591,172.000 277.451 C 172.000 277.311,171.719 276.976,171.375 276.705 C 171.031 276.435,170.750 276.106,170.750 275.973 C 170.750 275.841,170.412 275.403,170.000 275.000 C 169.588 274.597,169.250 274.203,169.250 274.125 C 169.250 274.047,168.912 273.653,168.500 273.250 C 168.088 272.847,167.750 272.453,167.750 272.376 C 167.750 272.298,167.352 271.886,166.867 271.459 C 166.381 271.032,166.035 270.632,166.098 270.568 C 166.162 270.505,165.824 270.111,165.348 269.693 C 164.873 269.275,164.530 268.887,164.586 268.831 C 164.643 268.774,164.393 268.402,164.032 268.004 C 162.562 266.387,162.000 265.723,162.000 265.606 C 162.000 265.539,161.662 265.153,161.250 264.750 C 160.837 264.347,160.500 263.953,160.500 263.875 C 160.500 263.797,160.163 263.403,159.750 263.000 C 159.338 262.597,159.000 262.203,159.000 262.126 C 159.000 262.048,158.602 261.636,158.117 261.209 C 157.631 260.782,157.285 260.382,157.348 260.318 C 157.412 260.255,157.074 259.861,156.598 259.443 C 156.123 259.025,155.780 258.637,155.836 258.581 C 155.893 258.524,155.643 258.166,155.282 257.786 C 154.400 256.857,153.250 255.474,153.250 255.341 C 153.250 255.282,152.912 254.903,152.500 254.500 C 152.088 254.097,151.750 253.699,151.750 253.617 C 151.750 253.534,151.341 253.080,150.840 252.608 C 150.340 252.136,150.006 251.750,150.099 251.750 C 150.191 251.750,149.866 251.398,149.375 250.967 C 148.885 250.536,148.535 250.132,148.598 250.068 C 148.662 250.005,148.324 249.611,147.848 249.193 C 147.373 248.775,147.039 248.377,147.108 248.309 C 147.177 248.240,146.956 247.965,146.617 247.699 C 146.277 247.432,146.000 247.106,146.000 246.973 C 146.000 246.841,145.662 246.403,145.250 246.000 C 144.838 245.597,144.500 245.203,144.500 245.125 C 144.500 245.047,144.162 244.653,143.750 244.250 C 143.338 243.847,143.000 243.451,143.000 243.371 C 143.000 243.290,142.578 242.837,142.063 242.363 C 141.547 241.890,141.213 241.502,141.321 241.501 C 141.429 241.501,141.116 241.148,140.625 240.717 C 140.135 240.286,139.780 239.887,139.836 239.831 C 139.893 239.774,139.643 239.402,139.282 239.004 C 137.812 237.387,137.250 236.723,137.250 236.606 C 137.250 236.539,136.913 236.153,136.500 235.750 C 136.088 235.347,135.750 234.953,135.750 234.875 C 135.750 234.797,135.412 234.403,135.000 234.000 C 134.588 233.597,134.250 233.203,134.250 233.126 C 134.250 233.048,133.852 232.636,133.367 232.209 C 132.881 231.782,132.535 231.382,132.598 231.318 C 132.662 231.255,132.324 230.861,131.848 230.443 C 131.373 230.025,131.036 229.630,131.101 229.565 C 131.166 229.501,130.945 229.193,130.610 228.883 C 130.274 228.572,130.000 228.215,130.000 228.089 C 130.000 227.963,129.775 227.698,129.500 227.500 C 129.225 227.302,129.000 227.022,129.000 226.879 C 129.000 226.736,128.719 226.407,128.375 226.149 C 128.031 225.891,127.750 225.523,127.750 225.332 C 127.750 225.141,127.582 224.920,127.376 224.841 C 127.171 224.762,127.062 224.603,127.133 224.486 C 127.205 224.370,127.036 224.153,126.757 224.004 C 126.478 223.855,126.250 223.568,126.250 223.366 C 126.250 223.165,126.137 223.000,126.000 223.000 C 125.862 223.000,125.778 222.901,125.812 222.781 C 125.847 222.660,125.566 222.211,125.188 221.783 C 124.809 221.355,124.500 220.891,124.500 220.752 C 124.500 220.613,124.388 220.500,124.250 220.500 C 124.112 220.500,124.000 220.331,124.000 220.125 C 124.000 219.919,123.900 219.750,123.777 219.750 C 123.655 219.750,123.484 219.469,123.397 219.125 C 123.311 218.781,123.123 218.500,122.980 218.500 C 122.837 218.500,122.791 218.387,122.876 218.248 C 122.962 218.110,122.856 217.929,122.641 217.846 C 122.426 217.764,122.250 217.480,122.250 217.215 C 122.250 216.951,122.081 216.670,121.875 216.590 C 121.669 216.511,121.500 216.239,121.500 215.986 C 121.500 215.732,121.321 215.425,121.103 215.302 C 120.884 215.180,120.707 214.978,120.710 214.853 C 120.718 214.429,119.945 213.000,119.707 213.000 C 119.577 213.000,119.540 212.887,119.625 212.750 C 119.710 212.612,119.654 212.500,119.500 212.500 C 119.346 212.500,119.290 212.387,119.375 212.250 C 119.460 212.112,119.410 212.000,119.265 212.000 C 119.119 212.000,119.023 211.916,119.051 211.813 C 119.078 211.709,118.831 211.119,118.500 210.500 C 118.169 209.881,117.922 209.291,117.949 209.188 C 117.977 209.084,117.881 209.000,117.735 209.000 C 117.590 209.000,117.540 208.887,117.625 208.750 C 117.710 208.613,117.654 208.500,117.500 208.500 C 117.346 208.500,117.290 208.387,117.375 208.250 C 117.460 208.113,117.434 208.000,117.318 208.000 C 117.202 208.000,117.089 207.762,117.067 207.472 C 117.045 207.182,116.852 206.751,116.638 206.514 C 116.424 206.278,116.324 206.009,116.416 205.917 C 116.508 205.825,116.456 205.750,116.300 205.750 C 116.143 205.750,116.075 205.596,116.147 205.407 C 116.220 205.219,116.132 204.909,115.952 204.720 C 115.772 204.530,115.586 204.150,115.538 203.875 C 115.489 203.600,115.377 203.319,115.288 203.250 C 115.198 203.181,115.087 202.900,115.040 202.625 C 114.993 202.350,114.851 202.087,114.726 202.041 C 114.600 201.995,114.558 201.858,114.634 201.736 C 114.709 201.614,114.574 201.146,114.334 200.695 C 114.095 200.244,113.926 199.734,113.960 199.563 C 113.994 199.391,113.908 199.250,113.769 199.250 C 113.630 199.250,113.580 199.081,113.660 198.875 C 113.739 198.669,113.682 198.500,113.535 198.500 C 113.387 198.500,113.330 198.331,113.410 198.125 C 113.489 197.919,113.432 197.750,113.285 197.750 C 113.137 197.750,113.080 197.581,113.160 197.375 C 113.239 197.169,113.179 197.000,113.027 197.000 C 112.875 197.000,112.771 196.916,112.797 196.813 C 112.903 196.388,112.439 194.500,112.228 194.500 C 112.103 194.500,112.022 194.416,112.050 194.313 C 112.159 193.898,111.705 191.750,111.508 191.750 C 111.392 191.750,111.356 191.525,111.428 191.250 C 111.499 190.975,111.443 190.750,111.301 190.750 C 111.160 190.750,111.075 190.553,111.113 190.313 C 111.150 190.072,111.072 189.594,110.940 189.250 C 110.807 188.906,110.652 188.175,110.596 187.625 C 110.539 187.075,110.390 186.287,110.264 185.875 C 109.972 184.919,109.735 183.369,109.364 180.000 C 109.281 179.244,109.165 178.344,109.107 178.000 C 108.871 176.610,108.514 167.961,108.616 166.109 C 108.943 160.169,109.036 158.729,109.127 158.203 C 109.182 157.885,109.290 157.063,109.368 156.375 C 109.445 155.688,109.788 153.606,110.130 151.750 C 110.888 147.639,110.864 147.753,111.375 145.750 C 111.603 144.856,111.834 143.900,111.889 143.625 C 112.439 140.845,116.264 130.704,118.276 126.694 C 120.356 122.548,125.367 114.234,126.228 113.500 C 126.309 113.431,126.651 112.981,126.989 112.500 C 127.326 112.019,127.693 111.513,127.803 111.375 C 127.914 111.237,128.573 110.394,129.269 109.500 C 139.931 95.806,158.164 83.712,174.875 79.247 C 179.212 78.089,184.007 77.034,186.750 76.636 C 191.071 76.009,192.921 75.897,199.125 75.887 C 211.380 75.866,217.852 76.851,228.638 80.380 C 234.148 82.182,242.261 85.816,245.750 88.045 C 246.231 88.352,246.874 88.740,247.178 88.907 C 248.858 89.828,249.403 90.163,249.809 90.523 C 250.056 90.741,250.566 91.078,250.942 91.272 C 251.318 91.466,251.681 91.687,251.750 91.763 C 251.819 91.839,252.325 92.233,252.875 92.638 C 254.127 93.561,254.240 93.648,254.976 94.255 C 255.306 94.527,255.655 94.750,255.752 94.750 C 255.848 94.750,256.216 95.003,256.569 95.313 C 256.923 95.622,257.807 96.381,258.534 97.000 C 262.277 100.185,270.129 108.000,269.585 108.000 C 269.519 108.000,269.613 108.151,269.795 108.335 C 269.976 108.520,270.406 109.042,270.750 109.496 C 271.094 109.950,271.683 110.671,272.060 111.098 C 272.437 111.525,272.810 112.072,272.889 112.313 C 272.969 112.553,273.131 112.750,273.250 112.750 C 273.369 112.750,273.530 112.947,273.608 113.188 C 273.685 113.428,274.086 113.985,274.499 114.424 C 274.912 114.863,275.250 115.341,275.250 115.486 C 275.250 115.631,275.363 115.750,275.500 115.750 C 275.637 115.750,275.750 115.919,275.750 116.125 C 275.750 116.331,275.863 116.500,276.000 116.500 C 276.137 116.500,276.250 116.669,276.250 116.875 C 276.250 117.081,276.340 117.250,276.450 117.250 C 276.560 117.250,276.795 117.651,276.972 118.141 C 277.149 118.632,277.453 119.094,277.647 119.168 C 277.841 119.243,278.000 119.511,278.000 119.764 C 278.000 120.018,278.197 120.340,278.438 120.480 C 278.678 120.620,278.788 120.738,278.681 120.742 C 278.398 120.753,279.218 122.250,279.506 122.250 C 279.640 122.250,279.722 122.338,279.687 122.446 C 279.591 122.750,281.296 126.000,281.552 126.000 C 281.677 126.000,281.710 126.113,281.625 126.250 C 281.540 126.388,281.608 126.500,281.777 126.500 C 281.945 126.500,282.015 126.568,281.932 126.652 C 281.746 126.838,282.918 129.545,283.281 129.769 C 283.425 129.858,283.533 130.003,283.521 130.090 C 283.445 130.660,283.548 131.013,283.893 131.357 C 284.109 131.573,284.227 131.750,284.156 131.750 C 284.084 131.750,284.144 132.088,284.287 132.500 C 284.431 132.912,284.657 133.250,284.789 133.250 C 284.921 133.250,284.965 133.354,284.887 133.481 C 284.755 133.693,285.190 134.957,285.495 135.250 C 285.566 135.319,285.628 135.488,285.631 135.625 C 285.638 135.967,287.343 141.094,287.500 141.250 C 287.570 141.319,287.666 141.713,287.714 142.125 C 287.762 142.537,287.874 142.931,287.964 143.000 C 288.054 143.069,288.163 143.435,288.207 143.814 C 288.250 144.193,288.509 145.262,288.782 146.189 C 289.054 147.116,289.318 148.156,289.369 148.500 C 289.419 148.844,289.633 150.081,289.844 151.250 C 290.280 153.665,290.435 154.691,290.643 156.561 C 290.724 157.284,290.841 158.156,290.902 158.500 C 291.293 160.683,291.460 172.699,291.143 175.875 C 291.060 176.700,290.938 177.938,290.871 178.625 C 290.804 179.313,290.689 180.325,290.614 180.875 C 290.540 181.425,290.441 182.156,290.394 182.500 C 290.348 182.844,290.232 183.310,290.138 183.537 C 290.044 183.763,289.992 184.101,290.023 184.287 C 290.054 184.473,290.009 184.794,289.924 185.000 C 289.752 185.418,288.962 189.336,288.888 190.138 C 288.862 190.420,288.758 190.785,288.656 190.950 C 288.554 191.115,288.540 191.363,288.625 191.500 C 288.710 191.638,288.673 191.750,288.543 191.750 C 288.331 191.750,287.851 193.849,287.957 194.313 C 287.981 194.416,287.897 194.500,287.772 194.500 C 287.647 194.500,287.456 194.978,287.349 195.563 C 287.128 196.767,287.088 196.950,287.000 197.125 C 286.966 197.194,286.909 197.363,286.875 197.500 C 286.841 197.637,286.784 197.806,286.750 197.875 C 286.716 197.944,286.659 198.113,286.625 198.250 C 286.591 198.387,286.534 198.556,286.500 198.625 C 286.466 198.694,286.419 198.834,286.396 198.938 C 286.373 199.041,286.108 199.668,285.808 200.331 C 285.508 200.994,285.277 201.612,285.295 201.706 C 285.313 201.799,285.127 202.325,284.883 202.875 C 284.639 203.425,284.420 204.004,284.396 204.162 C 284.372 204.320,284.220 204.610,284.057 204.807 C 283.893 205.003,283.727 205.383,283.686 205.651 C 283.645 205.918,283.311 206.712,282.943 207.415 C 282.576 208.117,282.345 208.761,282.429 208.846 C 282.514 208.931,282.452 209.000,282.292 209.000 C 282.131 209.000,282.023 209.084,282.051 209.188 C 282.078 209.291,281.831 209.881,281.500 210.500 C 281.169 211.119,280.922 211.709,280.949 211.813 C 280.977 211.916,280.906 212.000,280.790 212.000 C 280.615 212.000,279.969 213.072,279.886 213.500 C 279.845 213.713,277.703 217.333,277.150 218.125 C 276.862 218.537,276.626 218.934,276.625 219.006 C 276.624 219.339,274.917 221.750,274.682 221.750 C 274.536 221.750,274.485 221.818,274.568 221.902 C 274.718 222.052,274.539 222.330,273.688 223.268 C 273.447 223.533,273.311 223.750,273.385 223.750 C 273.530 223.750,273.196 224.180,272.328 225.111 C 272.027 225.433,271.825 225.742,271.880 225.797 C 271.935 225.852,271.479 226.436,270.865 227.095 C 270.252 227.753,269.750 228.338,269.750 228.394 C 269.750 228.691,267.131 231.563,264.096 234.594 C 261.117 237.569,259.250 239.316,259.250 239.127 C 259.250 239.034,258.800 239.441,258.250 240.030 C 257.700 240.620,257.250 241.019,257.250 240.916 C 257.250 240.813,256.801 241.211,256.253 241.802 C 255.705 242.392,255.255 242.787,255.253 242.679 C 255.251 242.571,254.901 242.880,254.474 243.366 C 254.047 243.852,253.594 244.250,253.466 244.250 C 253.339 244.250,252.889 244.644,252.466 245.125 C 252.044 245.606,251.594 246.000,251.466 246.000 C 251.339 246.000,250.889 246.394,250.466 246.875 C 250.044 247.356,249.593 247.750,249.464 247.750 C 249.336 247.750,248.791 248.172,248.254 248.688 C 246.157 250.702,245.000 251.738,245.000 251.601 C 245.000 251.522,244.550 251.941,244.000 252.530 C 243.450 253.120,243.000 253.514,243.000 253.405 C 243.000 253.297,242.550 253.691,242.000 254.280 C 241.450 254.870,241.000 255.263,241.000 255.152 C 241.000 255.042,240.642 255.356,240.204 255.851 C 239.766 256.345,239.318 256.750,239.207 256.750 C 239.097 256.750,238.622 257.170,238.151 257.684 C 237.303 258.609,237.290 258.614,236.771 258.144 C 236.483 257.883,236.296 257.621,236.355 257.561 C 236.415 257.502,236.074 257.111,235.598 256.693 C 235.123 256.275,234.780 255.887,234.836 255.831 C 234.893 255.774,234.643 255.416,234.282 255.036 C 233.400 254.107,232.250 252.724,232.250 252.591 C 232.250 252.532,231.913 252.153,231.500 251.750 C 231.088 251.347,230.750 250.953,230.750 250.875 C 230.750 250.797,230.412 250.403,230.000 250.000 C 229.588 249.597,229.250 249.203,229.250 249.126 C 229.250 249.048,228.852 248.636,228.367 248.209 C 227.881 247.782,227.535 247.382,227.598 247.318 C 227.662 247.255,227.324 246.861,226.848 246.443 C 226.373 246.025,226.030 245.637,226.086 245.581 C 226.143 245.524,225.893 245.152,225.532 244.754 C 224.062 243.137,223.500 242.473,223.500 242.356 C 223.500 242.289,223.162 241.903,222.750 241.500 C 222.338 241.097,222.000 240.703,222.000 240.625 C 222.000 240.547,221.662 240.153,221.250 239.750 C 220.838 239.347,220.500 238.953,220.500 238.876 C 220.500 238.798,220.102 238.386,219.617 237.959 C 219.131 237.532,218.785 237.132,218.848 237.068 C 218.912 237.005,218.574 236.611,218.098 236.193 C 217.623 235.775,217.280 235.387,217.336 235.331 C 217.393 235.274,217.143 234.902,216.782 234.504 C 215.312 232.887,214.750 232.223,214.750 232.106 C 214.750 232.039,214.412 231.653,214.000 231.250 C 213.588 230.847,213.250 230.453,213.250 230.375 C 213.250 230.297,212.912 229.903,212.500 229.500 C 212.088 229.097,211.750 228.703,211.750 228.626 C 211.750 228.548,211.352 228.136,210.867 227.709 C 210.381 227.282,210.035 226.882,210.098 226.818 C 210.162 226.755,209.824 226.361,209.348 225.943 C 208.873 225.525,208.530 225.137,208.586 225.081 C 208.643 225.024,208.393 224.655,208.032 224.262 C 206.330 222.408,206.000 222.021,206.000 221.883 C 206.000 221.800,205.662 221.403,205.250 221.000 C 204.838 220.597,204.500 220.203,204.500 220.125 C 204.500 220.047,204.162 219.653,203.750 219.250 C 203.338 218.847,203.000 218.451,203.000 218.371 C 203.000 218.290,202.578 217.837,202.063 217.363 C 201.547 216.890,201.213 216.502,201.321 216.501 C 201.429 216.501,201.116 216.148,200.625 215.717 C 200.135 215.286,199.787 214.880,199.853 214.814 C 199.918 214.748,199.641 214.416,199.236 214.075 C 198.831 213.734,198.500 213.341,198.500 213.201 C 198.500 213.061,198.219 212.726,197.875 212.455 C 197.531 212.185,197.250 211.856,197.250 211.723 C 197.250 211.591,196.912 211.153,196.500 210.750 C 196.088 210.347,195.750 209.953,195.750 209.875 C 195.750 209.797,195.412 209.403,195.000 209.000 C 194.588 208.597,194.250 208.199,194.250 208.117 C 194.250 208.034,193.841 207.580,193.340 207.108 C 192.840 206.636,192.506 206.250,192.599 206.250 C 192.691 206.250,192.366 205.898,191.875 205.467 C 191.385 205.036,191.035 204.632,191.098 204.568 C 191.162 204.505,190.824 204.111,190.348 203.693 C 189.873 203.275,189.539 202.877,189.608 202.809 C 189.677 202.740,189.456 202.465,189.117 202.199 C 188.777 201.932,188.500 201.606,188.500 201.473 C 188.500 201.341,188.162 200.903,187.750 200.500 C 187.338 200.097,187.000 199.703,187.000 199.625 C 187.000 199.547,186.662 199.153,186.250 198.750 C 185.838 198.347,185.500 197.949,185.500 197.867 C 185.500 197.784,185.091 197.330,184.590 196.858 C 184.090 196.386,183.756 196.000,183.849 196.000 C 183.941 196.000,183.616 195.648,183.125 195.217 C 182.635 194.786,182.285 194.382,182.348 194.318 C 182.412 194.255,182.074 193.861,181.598 193.443 C 181.123 193.025,180.789 192.627,180.858 192.559 C 180.927 192.490,180.706 192.215,180.367 191.949 C 180.027 191.682,179.750 191.356,179.750 191.223 C 179.750 191.091,179.412 190.653,179.000 190.250 C 178.588 189.847,178.250 189.459,178.250 189.388 C 178.250 189.277,177.593 188.532,176.124 186.979 C 175.918 186.761,175.750 186.452,175.750 186.292 C 175.750 186.131,175.553 185.802,175.313 185.560 C 175.072 185.318,174.374 184.080,173.762 182.810 C 173.150 181.539,172.547 180.500,172.423 180.500 C 172.298 180.500,172.260 180.335,172.338 180.132 C 172.415 179.930,172.334 179.620,172.157 179.443 C 171.980 179.265,171.881 178.981,171.938 178.810 C 171.995 178.640,171.923 178.500,171.779 178.500 C 171.634 178.500,171.580 178.331,171.660 178.125 C 171.739 177.919,171.698 177.750,171.568 177.750 C 171.439 177.750,171.328 177.609,171.321 177.438 C 171.304 177.013,171.108 176.076,170.786 174.875 C 170.123 172.404,169.957 166.496,170.474 163.750 C 170.642 162.856,170.811 161.956,170.851 161.750 C 171.613 157.732,173.920 152.798,176.748 149.137 C 180.515 144.260,188.132 139.627,194.000 138.645 C 194.481 138.564,195.156 138.432,195.500 138.352 C 201.107 137.044,214.735 140.248,217.250 143.466 C 217.319 143.554,217.844 143.944,218.417 144.333 C 219.962 145.380,223.380 149.043,224.466 150.813 C 224.782 151.328,225.144 151.750,225.270 151.750 C 225.397 151.750,225.500 151.979,225.500 152.258 C 225.500 152.537,225.668 152.830,225.874 152.909 C 226.079 152.988,226.185 153.153,226.109 153.276 C 226.033 153.399,226.090 153.500,226.235 153.500 C 226.381 153.500,226.488 153.584,226.473 153.688 C 226.417 154.077,226.818 155.000,227.044 155.000 C 227.173 155.000,227.210 155.113,227.125 155.250 C 227.040 155.387,227.066 155.500,227.182 155.500 C 227.298 155.500,227.412 155.743,227.434 156.040 C 227.457 156.337,227.621 156.673,227.800 156.786 C 227.979 156.900,228.047 156.994,227.952 156.996 C 227.857 156.998,228.044 157.778,228.368 158.729 C 228.946 160.428,229.317 162.023,229.653 164.250 C 229.891 165.829,229.946 171.547,229.728 172.003 C 229.628 172.210,229.504 172.942,229.452 173.628 C 229.400 174.314,229.266 175.023,229.154 175.204 C 229.042 175.385,229.016 175.600,229.098 175.681 C 229.179 175.762,229.130 175.968,228.989 176.138 C 228.848 176.308,228.754 176.544,228.781 176.661 C 228.808 176.779,228.759 177.044,228.674 177.250 C 228.589 177.456,228.248 178.358,227.918 179.253 C 227.159 181.310,225.876 183.883,225.085 184.938 C 224.749 185.384,224.565 185.752,224.675 185.754 C 224.785 185.756,224.762 185.840,224.624 185.941 C 223.775 186.564,221.333 191.278,221.620 191.742 C 221.708 191.884,221.662 192.000,221.518 192.000 C 221.373 192.000,221.254 192.253,221.252 192.563 C 221.249 192.872,221.198 193.575,221.137 194.125 C 220.810 197.093,221.153 200.319,221.963 201.875 C 222.177 202.287,222.330 202.709,222.301 202.813 C 222.273 202.916,222.369 203.000,222.515 203.000 C 222.660 203.000,222.710 203.113,222.625 203.250 C 222.540 203.387,222.596 203.500,222.750 203.500 C 222.904 203.500,222.960 203.612,222.875 203.750 C 222.790 203.887,222.858 204.000,223.027 204.000 C 223.195 204.000,223.258 204.075,223.166 204.168 C 222.723 204.610,226.538 208.771,228.829 210.343 C 232.568 212.908,237.540 213.229,241.375 211.153 C 242.580 210.501,244.498 209.246,244.959 208.809 C 245.143 208.635,245.679 208.198,246.151 207.839 C 250.291 204.680,256.709 192.734,258.621 184.625 C 258.848 183.662,259.136 182.594,259.261 182.250 C 259.502 181.588,260.154 177.469,260.449 174.750 C 260.683 172.588,260.667 163.298,260.426 161.250 C 260.162 159.014,260.120 158.787,259.941 158.608 C 259.855 158.522,259.840 158.305,259.909 158.127 C 259.977 157.948,259.895 157.312,259.725 156.714 C 259.555 156.115,259.395 155.400,259.369 155.125 C 259.344 154.850,259.126 153.894,258.885 153.000 C 258.644 152.106,258.440 151.234,258.432 151.063 C 258.423 150.891,258.342 150.750,258.250 150.750 C 258.158 150.750,258.083 150.584,258.083 150.382 C 258.083 149.741,257.180 147.000,256.968 147.000 C 256.857 147.000,256.830 146.831,256.910 146.625 C 256.989 146.419,256.932 146.250,256.785 146.250 C 256.637 146.250,256.575 146.096,256.647 145.907 C 256.720 145.719,256.596 145.382,256.373 145.159 C 256.151 144.936,256.033 144.650,256.111 144.522 C 256.190 144.395,256.090 144.126,255.889 143.925 C 255.688 143.724,255.593 143.490,255.679 143.405 C 255.764 143.320,255.706 143.250,255.550 143.250 C 255.393 143.250,255.322 143.103,255.391 142.922 C 255.461 142.742,255.242 142.189,254.905 141.693 C 254.568 141.197,254.358 140.725,254.438 140.645 C 254.518 140.565,254.445 140.500,254.277 140.500 C 254.108 140.500,254.040 140.387,254.125 140.250 C 254.210 140.113,254.142 140.000,253.973 140.000 C 253.805 140.000,253.742 139.925,253.834 139.833 C 253.926 139.741,253.840 139.488,253.643 139.270 C 253.306 138.897,253.250 138.763,253.250 138.313 C 253.250 138.209,252.971 137.801,252.630 137.405 C 252.289 137.009,252.072 136.586,252.146 136.466 C 252.221 136.345,252.106 136.179,251.892 136.097 C 251.678 136.015,251.565 135.847,251.641 135.724 C 251.717 135.601,251.654 135.500,251.500 135.500 C 251.346 135.500,251.291 135.387,251.376 135.248 C 251.462 135.110,251.356 134.929,251.141 134.846 C 250.926 134.764,250.750 134.540,250.750 134.348 C 250.750 134.157,250.637 134.000,250.500 134.000 C 250.363 134.000,250.250 133.831,250.250 133.625 C 250.250 133.419,250.137 133.250,250.000 133.250 C 249.863 133.250,249.750 133.092,249.750 132.899 C 249.750 132.706,249.384 132.135,248.938 131.630 C 248.491 131.126,248.161 130.656,248.204 130.587 C 248.247 130.518,247.966 130.189,247.579 129.856 C 247.192 129.523,246.977 129.250,247.101 129.250 C 247.226 129.250,247.029 128.993,246.664 128.680 C 246.299 128.366,246.000 128.031,246.000 127.936 C 246.000 127.726,239.776 121.500,239.566 121.500 C 239.409 121.500,239.125 121.259,237.821 120.016 C 237.379 119.595,236.945 119.250,236.857 119.250 C 236.769 119.250,236.343 118.967,235.911 118.621 C 234.730 117.676,234.710 117.661,233.500 116.844 C 232.881 116.426,232.206 116.008,232.000 115.914 C 231.794 115.821,231.287 115.528,230.875 115.263 C 229.790 114.566,224.250 111.745,224.250 111.890 C 224.250 111.957,223.997 111.846,223.688 111.643 C 222.963 111.168,219.750 109.956,219.750 110.158 C 219.750 110.242,219.581 110.171,219.375 110.000 C 219.169 109.829,219.000 109.773,219.000 109.875 C 219.000 109.977,218.831 109.921,218.625 109.750 C 218.419 109.579,218.248 109.537,218.246 109.657 C 218.244 109.777,218.160 109.752,218.059 109.601 C 217.895 109.358,214.191 108.334,212.516 108.070 C 211.456 107.902,211.146 107.828,210.688 107.633 C 210.447 107.530,210.095 107.506,209.905 107.579 C 209.716 107.651,209.458 107.608,209.332 107.482 C 208.890 107.040,197.032 106.672,194.000 107.006 C 192.938 107.122,188.542 107.772,188.000 107.892 C 187.656 107.968,186.953 108.094,186.438 108.173 C 185.922 108.252,185.500 108.426,185.500 108.560 C 185.500 108.694,185.335 108.740,185.133 108.663 C 184.931 108.585,184.715 108.605,184.652 108.706 C 184.589 108.808,184.168 108.919,183.716 108.953 C 183.264 108.988,182.808 109.153,182.701 109.320 C 182.595 109.488,182.506 109.527,182.504 109.407 C 182.502 109.287,182.329 109.331,182.119 109.505 C 181.909 109.679,181.667 109.750,181.579 109.663 C 181.492 109.576,181.270 109.630,181.086 109.783 C 180.901 109.936,180.750 109.985,180.750 109.891 C 180.750 109.798,180.512 109.888,180.221 110.092 C 179.931 110.296,179.537 110.402,179.346 110.329 C 179.156 110.256,179.000 110.318,179.000 110.465 C 179.000 110.613,178.846 110.675,178.657 110.603 C 178.469 110.530,178.145 110.641,177.937 110.849 C 177.729 111.056,177.495 111.162,177.417 111.083 C 177.338 111.005,177.091 111.124,176.867 111.348 C 176.643 111.571,176.364 111.695,176.247 111.623 C 176.130 111.551,175.963 111.608,175.875 111.750 C 175.787 111.892,175.611 111.943,175.483 111.864 C 175.355 111.785,175.250 111.846,175.250 112.000 C 175.250 112.154,175.147 112.216,175.020 112.137 C 174.894 112.059,174.626 112.160,174.425 112.361 C 174.224 112.562,173.990 112.657,173.905 112.571 C 173.820 112.486,173.750 112.555,173.750 112.723 C 173.750 112.892,173.637 112.960,173.500 112.875 C 173.363 112.790,173.250 112.846,173.250 113.000 C 173.250 113.154,173.137 113.210,173.000 113.125 C 172.863 113.040,172.750 113.096,172.750 113.250 C 172.750 113.404,172.637 113.460,172.500 113.375 C 172.363 113.290,172.250 113.346,172.250 113.500 C 172.250 113.654,172.137 113.710,172.000 113.625 C 171.863 113.540,171.750 113.577,171.750 113.706 C 171.750 113.905,171.111 114.217,170.446 114.341 C 170.347 114.360,170.022 114.584,169.723 114.840 C 169.425 115.095,169.029 115.327,168.844 115.354 C 168.659 115.381,168.253 115.624,167.941 115.894 C 167.630 116.164,166.925 116.662,166.375 117.000 C 165.825 117.338,165.206 117.759,165.000 117.935 C 164.794 118.110,164.538 118.251,164.433 118.247 C 164.212 118.238,164.074 118.349,162.389 119.878 C 161.709 120.495,161.063 121.000,160.953 121.000 C 160.694 121.000,154.250 127.472,154.250 127.732 C 154.250 127.841,153.969 128.141,153.625 128.399 C 153.281 128.657,153.000 128.969,153.000 129.093 C 153.000 129.216,152.758 129.526,152.462 129.783 C 152.166 130.040,152.014 130.250,152.125 130.250 C 152.236 130.250,152.101 130.447,151.825 130.688 C 151.550 130.928,151.136 131.491,150.906 131.938 C 150.675 132.384,150.371 132.750,150.229 132.750 C 150.087 132.750,150.033 132.851,150.109 132.974 C 150.185 133.097,150.072 133.265,149.858 133.347 C 149.644 133.429,149.538 133.610,149.624 133.748 C 149.709 133.887,149.660 134.000,149.515 134.000 C 149.369 134.000,149.250 134.101,149.250 134.225 C 149.250 134.349,148.856 135.035,148.375 135.750 C 147.894 136.465,147.500 137.198,147.500 137.379 C 147.500 137.560,147.414 137.746,147.309 137.792 C 147.125 137.872,144.413 142.995,144.420 143.250 C 144.422 143.319,144.100 144.094,143.706 144.973 C 143.311 145.853,143.046 146.630,143.117 146.700 C 143.188 146.771,143.149 146.952,143.030 147.102 C 142.819 147.371,142.245 148.996,142.156 149.577 C 142.131 149.741,142.041 149.988,141.956 150.125 C 141.654 150.615,139.934 157.718,140.015 158.144 C 140.039 158.271,140.032 158.431,139.999 158.500 C 139.965 158.569,139.895 159.019,139.843 159.500 C 139.790 159.981,139.669 161.050,139.575 161.875 C 139.210 165.049,139.395 174.848,139.875 177.750 C 139.931 178.094,140.038 178.769,140.112 179.250 C 140.320 180.605,141.340 184.860,141.491 185.000 C 141.565 185.069,141.662 185.461,141.706 185.872 C 141.751 186.283,141.920 186.703,142.081 186.806 C 142.243 186.908,142.277 186.994,142.157 186.996 C 142.037 186.998,142.079 187.169,142.250 187.375 C 142.421 187.581,142.477 187.750,142.375 187.750 C 142.273 187.750,142.329 187.919,142.500 188.125 C 142.671 188.331,142.719 188.500,142.606 188.500 C 142.493 188.500,142.526 188.626,142.680 188.780 C 142.835 188.935,142.901 189.216,142.829 189.405 C 142.756 189.595,142.828 189.750,142.988 189.750 C 143.148 189.750,143.220 189.847,143.146 189.966 C 142.978 190.238,143.756 192.250,144.030 192.250 C 144.142 192.250,144.176 192.401,144.106 192.585 C 144.035 192.769,144.150 193.063,144.361 193.238 C 144.572 193.413,144.683 193.656,144.607 193.778 C 144.532 193.900,144.596 194.000,144.750 194.000 C 144.904 194.000,144.970 194.097,144.897 194.215 C 144.710 194.516,146.671 198.500,147.006 198.500 C 147.156 198.500,147.210 198.613,147.125 198.750 C 147.040 198.888,147.090 199.000,147.235 199.000 C 147.381 199.000,147.500 199.229,147.500 199.508 C 147.500 199.787,147.668 200.080,147.874 200.159 C 148.079 200.238,148.187 200.399,148.114 200.517 C 148.041 200.635,148.186 200.936,148.437 201.187 C 148.687 201.437,149.079 202.032,149.309 202.508 C 149.539 202.985,150.013 203.679,150.363 204.052 C 150.713 204.424,151.000 204.794,151.000 204.875 C 151.000 205.042,152.931 207.653,153.500 208.256 C 153.706 208.474,154.269 209.131,154.750 209.716 C 155.231 210.300,155.850 211.033,156.125 211.345 C 156.400 211.657,157.075 212.452,157.625 213.112 C 158.175 213.773,159.038 214.749,159.543 215.281 C 160.048 215.814,160.410 216.250,160.347 216.250 C 160.285 216.250,160.627 216.644,161.108 217.125 C 161.590 217.606,161.931 218.000,161.867 218.000 C 161.802 218.000,161.947 218.203,162.187 218.451 C 162.428 218.700,163.019 219.381,163.500 219.966 C 163.981 220.550,164.600 221.283,164.875 221.595 C 165.150 221.907,165.825 222.702,166.375 223.362 C 166.925 224.023,167.788 224.999,168.293 225.531 C 168.798 226.064,169.160 226.500,169.097 226.500 C 169.035 226.500,169.377 226.894,169.858 227.375 C 170.340 227.856,170.677 228.250,170.608 228.250 C 170.540 228.250,170.877 228.644,171.358 229.125 C 171.840 229.606,172.181 230.000,172.117 230.000 C 172.052 230.000,172.197 230.205,172.438 230.456 C 172.678 230.707,173.269 231.394,173.750 231.983 C 174.231 232.571,174.850 233.306,175.125 233.614 C 175.851 234.430,176.982 235.750,178.125 237.117 C 178.675 237.775,179.538 238.749,180.043 239.281 C 180.548 239.814,180.910 240.250,180.847 240.250 C 180.785 240.250,181.127 240.644,181.608 241.125 C 182.090 241.606,182.427 242.000,182.358 242.000 C 182.290 242.000,182.627 242.394,183.108 242.875 C 183.590 243.356,183.927 243.750,183.858 243.750 C 183.790 243.750,184.127 244.144,184.608 244.625 C 185.090 245.106,185.431 245.500,185.367 245.500 C 185.303 245.500,185.447 245.703,185.688 245.951 C 185.928 246.200,186.519 246.881,187.000 247.466 C 187.481 248.050,188.100 248.783,188.375 249.095 C 188.650 249.407,189.325 250.199,189.875 250.855 C 190.425 251.511,191.100 252.299,191.375 252.605 C 191.650 252.912,192.325 253.702,192.875 254.362 C 193.425 255.023,194.288 255.999,194.793 256.531 C 195.298 257.064,195.660 257.500,195.597 257.500 C 195.535 257.500,195.877 257.894,196.358 258.375 C 196.840 258.856,197.181 259.250,197.117 259.250 C 197.053 259.250,197.197 259.452,197.438 259.699 C 197.678 259.946,198.251 260.616,198.711 261.187 C 199.170 261.759,199.789 262.494,200.086 262.820 C 200.382 263.146,201.075 263.952,201.625 264.612 C 202.175 265.273,203.038 266.249,203.543 266.781 C 204.048 267.314,204.410 267.750,204.347 267.750 C 204.285 267.750,204.627 268.144,205.108 268.625 C 205.590 269.106,205.931 269.500,205.867 269.500 C 205.803 269.500,205.947 269.703,206.188 269.951 C 206.428 270.200,207.019 270.881,207.500 271.466 C 207.981 272.050,208.600 272.783,208.875 273.095 C 209.150 273.407,209.825 274.202,210.375 274.862 C 210.925 275.523,211.788 276.499,212.293 277.031 C 212.798 277.564,213.163 278.000,213.105 278.000 C 213.047 278.000,213.197 278.205,213.438 278.456 C 213.678 278.707,214.269 279.397,214.750 279.990 C 215.231 280.583,216.038 281.503,216.543 282.034 C 217.048 282.565,217.410 283.000,217.347 283.000 C 217.285 283.000,217.627 283.394,218.108 283.875 C 218.590 284.356,218.931 284.750,218.867 284.750 C 218.803 284.750,218.947 284.953,219.187 285.201 C 219.428 285.450,220.019 286.131,220.500 286.716 C 220.981 287.300,221.600 288.033,221.875 288.345 C 222.150 288.657,222.825 289.452,223.375 290.112 C 223.925 290.773,224.788 291.749,225.293 292.281 C 225.798 292.814,226.160 293.250,226.097 293.250 C 226.035 293.250,226.377 293.644,226.858 294.125 C 227.340 294.606,227.681 295.000,227.617 295.000 C 227.553 295.000,227.697 295.206,227.938 295.458 C 228.425 295.968,229.433 297.145,230.750 298.742 C 231.231 299.326,231.869 300.068,232.166 300.392 C 232.464 300.715,232.858 301.182,233.041 301.428 C 233.811 302.459,234.162 302.563,234.808 301.949 C 235.527 301.266,236.918 300.044,238.735 298.500 C 239.463 297.881,240.362 297.094,240.733 296.750 C 241.105 296.406,242.060 295.563,242.856 294.875 C 243.652 294.188,244.553 293.400,244.857 293.125 C 245.161 292.850,246.060 292.063,246.855 291.375 C 247.651 290.688,248.609 289.844,248.986 289.500 C 249.985 288.587,251.479 287.280,252.985 286.000 C 253.713 285.381,254.612 284.594,254.983 284.250 C 255.355 283.906,256.310 283.063,257.106 282.375 C 257.902 281.688,258.803 280.900,259.107 280.625 C 259.411 280.350,260.310 279.563,261.105 278.875 C 261.901 278.188,262.859 277.344,263.236 277.000 C 264.235 276.087,265.729 274.780,267.235 273.500 C 267.963 272.881,268.862 272.094,269.233 271.750 C 269.605 271.406,270.560 270.563,271.356 269.875 C 272.152 269.188,273.053 268.400,273.357 268.125 C 273.661 267.850,274.560 267.063,275.355 266.375 C 276.151 265.688,277.105 264.844,277.477 264.500 C 277.849 264.156,278.818 263.313,279.631 262.625 C 281.580 260.978,290.066 252.498,291.500 250.766 C 292.119 250.018,292.794 249.227,293.000 249.007 C 293.206 248.787,293.849 247.992,294.429 247.241 C 295.008 246.490,295.739 245.576,296.054 245.211 C 296.368 244.845,296.794 244.297,297.000 243.993 C 297.206 243.688,297.488 243.310,297.625 243.154 C 297.762 242.997,298.258 242.307,298.727 241.622 C 299.196 240.936,300.004 239.812,300.523 239.124 C 301.041 238.436,301.616 237.592,301.799 237.249 C 301.983 236.906,302.750 235.639,303.504 234.434 C 306.819 229.138,311.098 220.582,313.390 214.669 C 314.305 212.307,315.151 210.150,315.271 209.875 C 315.541 209.254,316.260 207.081,316.377 206.532 C 316.425 206.308,316.859 204.831,317.342 203.250 C 317.826 201.669,318.278 200.094,318.348 199.750 C 318.417 199.406,318.535 198.900,318.608 198.625 C 318.792 197.939,319.722 193.628,319.984 192.250 C 320.888 187.493,320.982 186.871,321.635 181.375 C 322.492 174.164,322.432 161.715,321.504 154.250 C 321.376 153.219,321.201 151.767,321.114 151.025 C 321.027 150.282,320.912 149.443,320.858 149.160 C 320.803 148.877,320.698 148.242,320.625 147.750 C 320.484 146.802,320.386 146.308,319.982 144.500 C 319.843 143.881,319.669 142.925,319.594 142.375 C 319.519 141.825,319.276 140.756,319.055 140.000 C 318.833 139.244,318.678 138.529,318.710 138.411 C 318.742 138.294,318.652 138.058,318.511 137.888 C 318.370 137.718,318.326 137.508,318.413 137.421 C 318.500 137.333,318.452 137.119,318.307 136.944 C 318.161 136.768,318.044 136.569,318.046 136.500 C 318.064 135.830,317.644 134.000,317.472 134.000 C 317.350 134.000,317.273 133.916,317.302 133.813 C 317.407 133.432,316.988 131.500,316.800 131.500 C 316.694 131.500,316.589 131.266,316.567 130.981 C 316.510 130.219,315.209 126.388,314.977 126.296 C 314.868 126.253,314.840 126.056,314.916 125.859 C 314.992 125.661,314.922 125.500,314.762 125.500 C 314.602 125.500,314.538 125.391,314.620 125.257 C 314.703 125.124,314.577 124.646,314.340 124.195 C 314.103 123.744,313.890 123.156,313.868 122.888 C 313.845 122.620,313.703 122.359,313.552 122.309 C 313.401 122.259,313.334 122.071,313.403 121.891 C 313.472 121.711,313.373 121.408,313.182 121.218 C 312.991 121.027,312.877 120.744,312.929 120.589 C 312.980 120.435,312.845 120.130,312.627 119.913 C 312.410 119.696,312.236 119.458,312.241 119.384 C 312.281 118.780,312.207 118.489,311.938 118.199 C 311.766 118.014,311.593 117.697,311.554 117.494 C 311.406 116.728,310.930 115.750,310.705 115.750 C 310.576 115.750,310.540 115.637,310.625 115.500 C 310.710 115.362,310.654 115.250,310.500 115.250 C 310.346 115.250,310.279 115.155,310.351 115.038 C 310.531 114.748,307.803 109.250,307.480 109.250 C 307.337 109.250,307.290 109.138,307.375 109.000 C 307.460 108.862,307.410 108.750,307.265 108.750 C 307.119 108.750,307.024 108.666,307.052 108.563 C 307.145 108.232,306.203 106.500,305.930 106.500 C 305.785 106.500,305.737 106.429,305.823 106.343 C 306.030 106.137,305.307 104.750,304.994 104.750 C 304.860 104.750,304.750 104.521,304.750 104.242 C 304.750 103.963,304.581 103.670,304.375 103.590 C 304.169 103.511,304.000 103.230,304.000 102.965 C 304.000 102.701,303.831 102.420,303.625 102.340 C 303.419 102.261,303.250 102.049,303.250 101.869 C 303.250 101.689,303.131 101.502,302.986 101.454 C 302.841 101.405,302.693 101.162,302.656 100.913 C 302.620 100.664,302.429 100.358,302.232 100.234 C 302.036 100.109,301.961 100.006,302.065 100.004 C 302.337 99.998,300.476 97.250,300.200 97.250 C 300.074 97.250,300.028 97.158,300.097 97.045 C 300.167 96.932,300.033 96.658,299.800 96.437 C 299.224 95.892,298.727 95.275,298.797 95.192 C 298.829 95.155,298.579 94.807,298.240 94.417 C 297.902 94.028,297.661 93.654,297.704 93.586 C 297.747 93.518,297.552 93.262,297.271 93.018 C 296.989 92.774,296.832 92.501,296.921 92.412 C 297.010 92.323,296.953 92.250,296.795 92.250 C 296.636 92.250,296.221 91.799,295.873 91.247 C 295.084 89.997,294.566 89.357,293.688 88.550 C 293.309 88.202,293.000 87.815,293.000 87.689 C 293.000 87.564,292.527 87.020,291.949 86.480 C 291.370 85.941,290.970 85.500,291.059 85.500 C 291.249 85.500,289.664 83.828,286.199 80.375 C 282.482 76.671,280.978 75.250,280.774 75.250 C 280.674 75.250,280.243 74.856,279.817 74.375 C 279.391 73.894,278.958 73.500,278.855 73.500 C 278.751 73.500,278.489 73.333,278.271 73.130 C 277.535 72.442,276.548 71.612,275.729 70.992 C 275.280 70.653,274.652 70.117,274.332 69.801 C 274.012 69.486,273.750 69.306,273.750 69.402 C 273.750 69.498,273.525 69.317,273.250 69.000 C 272.975 68.683,272.750 68.505,272.750 68.605 C 272.750 68.704,272.585 68.637,272.384 68.455 C 271.556 67.709,271.259 67.500,271.025 67.500 C 270.889 67.500,270.603 67.250,270.389 66.944 C 270.175 66.639,270.000 66.474,270.000 66.579 C 270.000 66.684,269.754 66.540,269.453 66.260 C 269.152 65.979,268.758 65.750,268.578 65.750 C 268.398 65.750,268.250 65.638,268.250 65.500 C 268.250 65.362,268.081 65.250,267.875 65.250 C 267.669 65.250,267.500 65.138,267.500 65.000 C 267.500 64.862,267.341 64.750,267.146 64.750 C 266.951 64.750,266.754 64.662,266.708 64.553 C 266.620 64.345,264.962 63.131,264.750 63.119 C 264.681 63.115,264.344 62.936,264.000 62.720 C 262.507 61.785,260.794 60.749,259.750 60.152 C 258.373 59.364,250.472 55.348,250.125 55.260 C 249.988 55.225,249.425 54.967,248.875 54.686 C 248.325 54.406,247.875 54.204,247.875 54.239 C 247.875 54.273,247.425 54.106,246.875 53.866 C 246.325 53.627,245.622 53.334,245.313 53.215 C 245.003 53.097,244.497 52.891,244.188 52.757 C 243.250 52.352,240.879 51.456,240.811 51.482 C 240.776 51.495,240.334 51.333,239.828 51.122 C 239.024 50.786,236.717 50.059,235.907 49.887 C 235.752 49.854,235.320 49.701,234.947 49.548 C 234.574 49.395,234.012 49.234,233.697 49.191 C 233.382 49.148,233.012 49.041,232.873 48.954 C 232.674 48.828,231.146 48.460,230.500 48.382 C 230.431 48.374,230.227 48.273,230.046 48.159 C 229.865 48.044,229.650 48.016,229.569 48.098 C 229.488 48.179,229.282 48.130,229.112 47.989 C 228.942 47.848,228.706 47.757,228.589 47.787 C 228.471 47.817,227.931 47.711,227.389 47.552 C 226.847 47.393,226.351 47.316,226.287 47.380 C 226.223 47.443,226.048 47.396,225.898 47.274 C 225.651 47.073,222.160 46.318,221.250 46.268 C 221.044 46.257,220.481 46.184,220.000 46.106 C 219.519 46.028,218.844 45.925,218.500 45.877 C 218.156 45.830,217.875 45.768,217.875 45.739 C 217.875 45.711,217.481 45.647,217.000 45.596 C 216.519 45.546,215.619 45.440,215.000 45.361 C 211.587 44.925,209.679 44.751,206.875 44.619 C 203.787 44.474,196.767 44.316,196.692 44.390 " stroke="none" fill="#0494e4" fill-rule="evenodd"></path><path id="path1" d="M197.313 44.422 C 197.553 44.485,197.947 44.485,198.188 44.422 C 198.428 44.359,198.231 44.308,197.750 44.308 C 197.269 44.308,197.072 44.359,197.313 44.422 M201.813 44.422 C 202.053 44.485,202.447 44.485,202.688 44.422 C 202.928 44.359,202.731 44.308,202.250 44.308 C 201.769 44.308,201.572 44.359,201.813 44.422 M114.118 79.813 L 112.375 81.625 114.188 79.882 C 115.184 78.923,116.000 78.107,116.000 78.069 C 116.000 77.886,115.737 78.129,114.118 79.813 M286.125 80.250 C 286.941 81.075,287.666 81.750,287.734 81.750 C 287.803 81.750,287.191 81.075,286.375 80.250 C 285.559 79.425,284.834 78.750,284.766 78.750 C 284.697 78.750,285.309 79.425,286.125 80.250 M135.741 102.188 L 134.375 103.625 135.813 102.259 C 137.148 100.989,137.365 100.750,137.179 100.750 C 137.140 100.750,136.493 101.397,135.741 102.188 M264.375 102.500 C 265.191 103.325,265.916 104.000,265.984 104.000 C 266.053 104.000,265.441 103.325,264.625 102.500 C 263.809 101.675,263.084 101.000,263.016 101.000 C 262.947 101.000,263.559 101.675,264.375 102.500 M77.808 165.500 C 77.808 165.981,77.859 166.178,77.922 165.938 C 77.985 165.697,77.985 165.303,77.922 165.063 C 77.859 164.822,77.808 165.019,77.808 165.500 M291.313 166.625 C 291.316 167.175,291.367 167.371,291.427 167.060 C 291.487 166.749,291.484 166.299,291.422 166.060 C 291.359 165.821,291.310 166.075,291.313 166.625 M108.582 168.375 C 108.583 169.338,108.628 169.701,108.682 169.182 C 108.737 168.663,108.736 167.876,108.680 167.432 C 108.625 166.988,108.581 167.412,108.582 168.375 M170.063 168.375 C 170.066 168.925,170.117 169.121,170.177 168.810 C 170.237 168.499,170.234 168.049,170.172 167.810 C 170.109 167.571,170.060 167.825,170.063 168.375 M291.313 169.875 C 291.316 170.425,291.367 170.621,291.427 170.310 C 291.487 169.999,291.484 169.549,291.422 169.310 C 291.359 169.071,291.310 169.325,291.313 169.875 M225.875 208.000 C 226.552 208.688,227.162 209.250,227.231 209.250 C 227.300 209.250,226.802 208.688,226.125 208.000 C 225.448 207.313,224.838 206.750,224.769 206.750 C 224.700 206.750,225.198 207.313,225.875 208.000 M193.000 349.625 C 193.747 350.381,194.414 351.000,194.483 351.000 C 194.552 351.000,193.997 350.381,193.250 349.625 C 192.503 348.869,191.836 348.250,191.767 348.250 C 191.698 348.250,192.253 348.869,193.000 349.625 M215.613 350.063 L 214.625 351.125 215.688 350.137 C 216.676 349.218,216.865 349.000,216.676 349.000 C 216.635 349.000,216.157 349.478,215.613 350.063 " stroke="none" fill="#049ce7" fill-rule="evenodd"></path><path id="path2" d="" stroke="none" fill="#0894e4" fill-rule="evenodd"></path><path id="path3" d="M263.991 234.688 L 262.625 236.125 264.063 234.759 C 265.398 233.489,265.615 233.250,265.429 233.250 C 265.390 233.250,264.743 233.897,263.991 234.688 " stroke="none" fill="#0494ec" fill-rule="evenodd"></path><path id="path4" d="" stroke="none" fill="#0894e4" fill-rule="evenodd"></path></g></svg>